<?xml version="1.0" encoding="utf-8"?>
<!-- Generator: Adobe Illustrator 16.0.0, SVG Export Plug-In . SVG Version: 6.00 Build 0)  -->
<!DOCTYPE svg PUBLIC "-//W3C//DTD SVG 1.1//EN" "http://www.w3.org/Graphics/SVG/1.1/DTD/svg11.dtd">
<svg version="1.1" id="Layer_1" xmlns="http://www.w3.org/2000/svg" xmlns:xlink="http://www.w3.org/1999/xlink" x="0px" y="0px"
	 width="463px" height="892px" viewBox="0 0 463 892" enable-background="new 0 0 463 892" xml:space="preserve">
<g id="Layer_3">
	<path fill="#BAAF73" d="M55-0.5c0,0-3.5,88,44.5,130c0,0,90,92.5,106,136.5c0,0,36.5,62,13.5,96c0,0-12.5,17.5-35,23
		c0,0-59,26-47,131c0,0,10,67,16,80.5c0,0,15,72,8.5,132c0,0-7.951,95-20.726,127.5c0,0,89.726-79.5,140.726-190.5
		c0,0,28.5-51.5,30-127.5c0,0,0-53-12-72.5c0,0-23.5-49.5-29.5-58.5c0,0-26.5-42-32.5-63.5c0,0-8.25-35.75-14.5-53.5
		c0,0-19.75-48-30-62l-14.25-23.25c0,0-15-21.75-21.25-28.75l-15.75-19.5c0,0,39,30.75,85.75,49.25c0,0-81.75-42.25-108-80.75
		c0,0,22.75,10.5,65.5,10.25c0,0,38.75-2.5,61,5.75c0,0,36,9.75,54.5,29c0,0-26.5-28.75-69-37c0,0-28.25-6.25-45-5.75
		c0,0,44.75-13.25,49.25-17.5l-9.5-0.5c0,0-55.25,23-96.5,4.5c0,0,31.25,6.75,51.75-28.75c0,0-22.25,35.75-68.25,19.5
		c0,0-29.5-6.5-33.5-60.5l1-44.5H55z"/>
	<g>
		<path fill="#DE477C" d="M280.25,70.5c0,0-21.25-1.75-37.25,26.5c0,0-3.312,5.181-10.281,12.59c0,0,10.531-6.59,27.281-4.59
			c0,0,26.5-1,33.5-8.25l0.75-0.25c0,0-1.375,20.625,8.375,29.375c0,0,11.125,11.625,12.5,16.5c0,0,0.125-19.75,5.625-34.5
			c0,0,11.5,6.875,22.25,7.25c0,0,11.5,0.375,16.125,2.25c0,0-11.375-12.25-13.875-20.5c0,0-11.125-24.875-25.25-18.875
			c0,0-8.75,6.625-13.75-2.625c0,0-4.375-8.25,3.75-14.125c0,0,15-6.875,4.375-29.375c0,0-6.125-15.25-6.25-29.375
			c0,0-9.875,16.5-11.125,17.875c0,0-8.25,11.75-6.75,21.875c0,0-1.125,1.25-2.625,0.5c0,0-8.5-5.125-12.75-7.5
			c0,0-11.5-7.375-14.375-11.25c0,0,5,13.25,7.125,26.125c0,0,2,11.875,10.875,18C278.5,68.125,281.125,70.52,280.25,70.5z"/>
		<path fill="#DE477C" d="M378.25,42.75c0,0-27-7.5-39.5-1.5c0,0-23.2,14.539-17.875,25.25c0,0,7.5,9.25,21.125,3.25
			c0,0,10-6.125,15.5-12.875C357.5,56.875,370.625,45.875,378.25,42.75z"/>
		
			<radialGradient id="SVGID_1_" cx="586.7666" cy="632.4521" r="26.7978" fx="578.7841" fy="631.5699" gradientTransform="matrix(0.9571 -0.2898 -0.1624 -0.5362 -101.645 559.563)" gradientUnits="userSpaceOnUse">
			<stop  offset="0" style="stop-color:#DE477C"/>
			<stop  offset="0.3309" style="stop-color:#DF4F81"/>
			<stop  offset="0.8304" style="stop-color:#E36390"/>
			<stop  offset="1" style="stop-color:#E56C96"/>
		</radialGradient>
		<path fill="url(#SVGID_1_)" d="M344.25,61.375c0,0,6.25-4.875,13.75-9.375l-1.875-2.5c0,0-20.625-1.125-28.125,0.625
			c0,0-0.675,0.468-1.684,1.254c-4.448,4.699-7.84,10.296-5.441,15.121c0,0,2.956,3.643,8.525,4.873
			C332.634,69.449,341.139,64.285,344.25,61.375z"/>
		
			<radialGradient id="SVGID_2_" cx="555.1279" cy="612.1348" r="77.4096" fx="532.069" fy="609.5864" gradientTransform="matrix(0.9571 -0.2898 -0.1624 -0.5362 -106.3022 559.8179)" gradientUnits="userSpaceOnUse">
			<stop  offset="0" style="stop-color:#DE477C"/>
			<stop  offset="0.3309" style="stop-color:#DF4F81"/>
			<stop  offset="0.8304" style="stop-color:#E36390"/>
			<stop  offset="1" style="stop-color:#E56C96"/>
		</radialGradient>
		<path fill="url(#SVGID_2_)" d="M316.125,96.5c0,0,3.375-10.75-1-15.875l-0.156-0.464c-2.807,0.489-6.229-0.178-8.719-4.786
			c0,0-3.939-7.445,2.633-13.228l-0.008-0.022c0,0-2.125-9.625-14.125-7.75c0,0-7.25-2-8.375-6.875c0,0-3,14.625,7.625,23.25
			l0.5,0.623c0,0-10.375-0.248-17.875,9.502c0,0-7,9.875-9.75,13c0,0,7.875-1.75,14.375-1.625c0,0,14.125,1.125,22.125-4
			c0,0-2,16.625,12.125,23.5C315.5,111.75,314.625,99.5,316.125,96.5z"/>
	</g>
	<g>
		<path fill="#DE477C" d="M128.479,49.51c0,0-13.339-1.099-23.382,16.634c0,0-2.08,3.251-6.454,7.903c0,0,6.61-4.137,17.125-2.881
			c0,0,16.634-0.628,21.028-5.179l0.471-0.157c0,0-0.863,12.947,5.257,18.439c0,0,6.983,7.297,7.846,10.357
			c0,0,0.079-12.397,3.531-21.656c0,0,7.218,4.315,13.966,4.551c0,0,7.219,0.236,10.122,1.413c0,0-7.14-7.69-8.709-12.868
			c0,0-6.983-15.614-15.85-11.848c0,0-5.492,4.159-8.631-1.648c0,0-2.747-5.179,2.354-8.867c0,0,9.416-4.315,2.746-18.438
			c0,0-3.845-9.573-3.923-18.439c0,0-6.199,10.357-6.983,11.22c0,0-5.179,7.376-4.238,13.731c0,0-0.706,0.785-1.647,0.314
			c0,0-5.335-3.217-8.003-4.708c0,0-7.219-4.629-9.023-7.062c0,0,3.138,8.317,4.472,16.399c0,0,1.255,7.454,6.827,11.299
			C127.381,48.019,129.029,49.521,128.479,49.51z"/>
		<path fill="#DE477C" d="M189.996,32.09c0,0-16.948-4.708-24.794-0.941c0,0-14.563,9.126-11.22,15.85c0,0,4.707,5.807,13.26,2.04
			c0,0,6.277-3.845,9.729-8.082C176.971,40.957,185.209,34.052,189.996,32.09z"/>
		
			<radialGradient id="SVGID_3_" cx="406.3398" cy="645.9541" r="16.8215" fx="401.329" fy="645.4003" gradientTransform="matrix(0.9571 -0.2898 -0.1624 -0.5362 -107.1977 501.0063)" gradientUnits="userSpaceOnUse">
			<stop  offset="0" style="stop-color:#DE477C"/>
			<stop  offset="0.3309" style="stop-color:#DF4F81"/>
			<stop  offset="0.8304" style="stop-color:#E36390"/>
			<stop  offset="1" style="stop-color:#E56C96"/>
		</radialGradient>
		<path fill="url(#SVGID_3_)" d="M168.653,43.782c0,0,3.923-3.061,8.631-5.885l-1.177-1.57c0,0-12.946-0.706-17.654,0.393
			c0,0-0.423,0.293-1.057,0.787c-2.792,2.95-4.921,6.463-3.415,9.492c0,0,1.855,2.286,5.351,3.059
			C161.362,48.85,166.7,45.608,168.653,43.782z"/>
		
			<radialGradient id="SVGID_4_" cx="386.4775" cy="633.1982" r="48.5921" fx="372.0028" fy="631.5986" gradientTransform="matrix(0.9571 -0.2898 -0.1624 -0.5362 -110.1211 501.1655)" gradientUnits="userSpaceOnUse">
			<stop  offset="0" style="stop-color:#DE477C"/>
			<stop  offset="0.3309" style="stop-color:#DF4F81"/>
			<stop  offset="0.8304" style="stop-color:#E36390"/>
			<stop  offset="1" style="stop-color:#E56C96"/>
		</radialGradient>
		<path fill="url(#SVGID_4_)" d="M150.999,65.83c0,0,2.118-6.748-0.628-9.965l-0.098-0.291c-1.762,0.307-3.91-0.112-5.473-3.004
			c0,0-2.474-4.673,1.653-8.303l-0.005-0.015c0,0-1.334-6.041-8.866-4.865c0,0-4.551-1.255-5.257-4.315c0,0-1.884,9.18,4.786,14.594
			l0.314,0.391c0,0-6.512-0.155-11.22,5.965c0,0-4.394,6.198-6.12,8.16c0,0,4.943-1.098,9.023-1.02c0,0,8.867,0.706,13.889-2.511
			c0,0-1.256,10.436,7.611,14.751C150.607,75.403,150.057,67.713,150.999,65.83z"/>
	</g>
	<path fill="#DE477C" d="M224.667,199.833c0,0,0.5-12.5,25.5-15.833c0,0-4.166,2.833-4.333,8.667c0,0,0.5,5.167-2.167,6.333
		c0,0,6.666-3,11.333,0.833c0,0,3.5,3,7,3.167c0,0-1,4-9.5,4.333c0,0,6.5,9.666,11.5,14.333c0,0,10.834,10.667,12.834,11.5
		c0,0-9.501,4-32.334-2.5c0,0-1.666,5.833,4.667,10c0,0-11.167,0.833-19-11.5c0,0-4.667,1.5-5.5,6.833c0,0-0.333,3.5-4.333,6.667
		c0,0,2.167-5.833-3.333-12.167c0,0-5-14.667,3.333-18.833c0,0,6.333,1.167,8.333-2c0,0,2.833-5-2.5-7.5
		C226.167,202.167,224.499,200.833,224.667,199.833z"/>
	
		<radialGradient id="SVGID_5_" cx="347.2988" cy="811.3223" r="34.3203" gradientTransform="matrix(0.8545 0.5195 0.2117 -0.3482 -220.6181 321.8841)" gradientUnits="userSpaceOnUse">
		<stop  offset="0.1672" style="stop-color:#DE477C"/>
		<stop  offset="0.5006" style="stop-color:#E15989"/>
		<stop  offset="0.7829" style="stop-color:#E56C96"/>
	</radialGradient>
	<path fill="url(#SVGID_5_)" d="M252.834,224.667c5.834-0.167,3.166-1.5,3.166-1.5c-6.334-11.5-18.5-17.167-18.5-17.167
		c0.833-5.167-1.166-7-1.166-7c-2.833-3.833-8.334,4-8.334,4l-0.114,0.289c2.897,2.628,0.781,6.378,0.781,6.378
		c-0.858,1.359-2.516,1.917-4.127,2.115l-0.207,0.524c-3.833,5.639,1,14.361,1,14.361c0.833-3.5,5.667-6.833,5.667-6.833
		C237.666,227.167,252.834,224.667,252.834,224.667z"/>
</g>
</svg>
